<?xml version="1.0"?><svg xmlns="http://www.w3.org/2000/svg"  viewBox="0 0 24 24" width="24px" height="24px">    <path d="M 10.5 2 A 1.5 1.5 0 0 0 9 3.5 A 1.5 1.5 0 0 0 10.5 5 A 1.5 1.5 0 0 0 12 3.5 A 1.5 1.5 0 0 0 10.5 2 z M 15 5.75 A 1.75 1.75 0 0 0 13.25 7.5 A 1.75 1.75 0 0 0 15 9.25 A 1.75 1.75 0 0 0 16.75 7.5 A 1.75 1.75 0 0 0 15 5.75 z M 10.5 6 A 1.5 1.5 0 0 0 9 7.5 A 1.5 1.5 0 0 0 10.5 9 A 1.5 1.5 0 0 0 12 7.5 A 1.5 1.5 0 0 0 10.5 6 z M 6.5 6.25 A 1.25 1.25 0 0 0 5.25 7.5 A 1.25 1.25 0 0 0 6.5 8.75 A 1.25 1.25 0 0 0 7.75 7.5 A 1.25 1.25 0 0 0 6.5 6.25 z M 20 9.5 A 2 2 0 0 0 18 11.5 A 2 2 0 0 0 20 13.5 A 2 2 0 0 0 22 11.5 A 2 2 0 0 0 20 9.5 z M 15 9.75 A 1.75 1.75 0 0 0 13.25 11.5 A 1.75 1.75 0 0 0 15 13.25 A 1.75 1.75 0 0 0 16.75 11.5 A 1.75 1.75 0 0 0 15 9.75 z M 10.5 10 A 1.5 1.5 0 0 0 9 11.5 A 1.5 1.5 0 0 0 10.5 13 A 1.5 1.5 0 0 0 12 11.5 A 1.5 1.5 0 0 0 10.5 10 z M 3 10.25 A 1.25 1.25 0 0 0 1.75 11.5 A 1.25 1.25 0 0 0 3 12.75 A 1.25 1.25 0 0 0 4.25 11.5 A 1.25 1.25 0 0 0 3 10.25 z M 6.5 10.25 A 1.25 1.25 0 0 0 5.25 11.5 A 1.25 1.25 0 0 0 6.5 12.75 A 1.25 1.25 0 0 0 7.75 11.5 A 1.25 1.25 0 0 0 6.5 10.25 z M 15 13.75 A 1.75 1.75 0 0 0 13.25 15.5 A 1.75 1.75 0 0 0 15 17.25 A 1.75 1.75 0 0 0 16.75 15.5 A 1.75 1.75 0 0 0 15 13.75 z M 10.5 14 A 1.5 1.5 0 0 0 9 15.5 A 1.5 1.5 0 0 0 10.5 17 A 1.5 1.5 0 0 0 12 15.5 A 1.5 1.5 0 0 0 10.5 14 z M 6.5 14.25 A 1.25 1.25 0 0 0 5.25 15.5 A 1.25 1.25 0 0 0 6.5 16.75 A 1.25 1.25 0 0 0 7.75 15.5 A 1.25 1.25 0 0 0 6.5 14.25 z M 10.5 18 A 1.5 1.5 0 0 0 9 19.5 A 1.5 1.5 0 0 0 10.5 21 A 1.5 1.5 0 0 0 12 19.5 A 1.5 1.5 0 0 0 10.5 18 z"/></svg>